<svg xmlns="http://www.w3.org/2000/svg" viewBox="0 0 759.67 232.14"><defs><style>.cls-1{fill:#231f20;}.cls-2{fill:#fff;}.cls-3{fill:#d0d2d3;}</style></defs><g id="Layer_2" data-name="Layer 2"><g id="Layer_1-2" data-name="Layer 1"><path class="cls-1" d="M57.5,59.72,11.27,232.14H441.79l20.78-77.74h9.75l-20.78,77.74H612.66l20.78-77.74H667c6.71,0,12-3.23,18.59-7.81,40.67-26.31,49.46-31.78,51-32.69l5.36-3,2.58-5.58c1-2.16,2.24-4.85,12.28-43.15l2.78-10.62L707.08,0H185.4l11.31,26.35c1.73,4,1.86,4.33,31.65,33.37l-25.67,95.75H120.61L162.55,0h-148M290.32,160.15l2.34-9h49.12l2.88-10.57c11.08-39.93,11.08-40.62,11.08-43.92L354.47,83h-43.1c.08-.37,1.44-6,1.52-6.33h81.8l-22.23,83.49ZM498.57,80.68h-21q.28-3.59.55-7h22.19C499.81,76.16,499,78.33,498.57,80.68Zm169.67-1H649.63c.25-1.74.75-3.43,1-5h18.56C668.89,76.43,668.6,78.05,668.24,79.71Z"/><path class="cls-1" d="M57.5,59.72,11.27,232.14H441.79l20.78-77.74h9.75l-20.78,77.74H612.66l20.78-77.74H667c6.71,0,12-3.23,18.59-7.81,40.67-26.31,49.46-31.78,51-32.69l5.36-3,2.58-5.58c1-2.16,2.24-4.85,12.28-43.15l2.78-10.62L707.08,0H185.4l11.31,26.35c1.73,4,1.86,4.33,31.65,33.37l-25.67,95.75H120.61L162.55,0H0M290.32,160.15l2.34-9h49.12l2.88-10.57c11.08-39.93,11.08-40.62,11.08-43.92L354.47,83h-43.1c.08-.37,1.44-6,1.52-6.33h81.8l-22.23,83.49ZM498.57,80.68h-21c.56-2.39,1.09-4.76,1.56-7h21.18C500.13,76.09,498.78,78.41,498.57,80.68Zm169.67-.33-18.88-.09c.16-2.17.72-4.17.87-6.21l19.2.12C669.07,76.31,668.73,78.29,668.24,80.35Z"/><path class="cls-2" d="M43.21,18.9h94.67L95.93,174.37h98.52q-9.22,33.48-10.39,38.87H35.9L78.62,53.92Q43.6,19.8,43.21,18.9Z"/><path class="cls-3" d="M190.32,177.53c-4.6,16.66-7.46,27.4-8.75,32.57H40l25.23-94H108.4L91.83,177.53Z"/><path class="cls-2" d="M214.08,18.9H357.62q34.26,33.35,39.26,38.87H298.74q-.9,0-4.61,16.16-3.47,10.91-6.16,22.7h48.87q0,1.43-10.39,38.87H277.19L266.8,174.37h98.52q-9.24,33.48-10.39,38.87H206.77L249.48,53.92Q214.47,19.8,214.08,18.9Z"/><path class="cls-3" d="M361.19,177.53c-4.6,16.66-7.47,27.4-8.76,32.57H210.86l25.23-94h92.47c-1.23,4.41-2.71,9.76-4.51,16.28H274.76L262.7,177.53Z"/><path class="cls-2" d="M385,18.9H528.49l39.25,38.48Q527,208.12,525.8,213.24H476.15l20.78-77.74H448.06l-20.78,77.74H377.64L420.35,53.92Q385.34,19.8,385,18.9Zm73.89,77.73h48.87q0-1.27,10.39-38.86H469.61q-.9,0-4.62,16.16Q461.53,84.84,458.84,96.63Z"/><path class="cls-3" d="M407,116.08l-25.2,94h43.12l20.76-77.74H501L480.24,210.1h43.09c2.3-8.85,10.64-39.88,25.29-94Z"/><path class="cls-2" d="M555.81,18.9H699.36l39.25,38.48q-9.61,36.69-11.16,40-4.37,2.44-52.34,33.49-6.66,4.61-8.08,4.61h-48.1l-20.78,77.74H548.5L591.22,53.92Q556.19,19.8,555.81,18.9ZM629.7,96.63h48.88q0-1.27,10.39-38.86H640.48q-.9,0-4.62,16.16Q632.4,84.84,629.7,96.63Z"/><path class="cls-3" d="M577.82,116.08l-25.2,94h43.12l20.79-77.74h50.23c.44-.18,2-.94,6.65-4.12l18.83-12.16Z"/></g></g></svg>